<?xml version="1.0" standalone="no"?><!DOCTYPE svg PUBLIC "-//W3C//DTD SVG 1.1//EN" "http://www.w3.org/Graphics/SVG/1.1/DTD/svg11.dtd"><svg class="icon" width="200px" height="200.00px" viewBox="0 0 1024 1024" version="1.1" xmlns="http://www.w3.org/2000/svg"><path fill="#333333" d="M519.68 747.52c-150.016 4.096-274.944-114.688-279.04-264.704s114.688-274.944 264.704-279.04 274.944 114.688 279.04 264.704-114.688 274.944-264.704 279.04zM506.88 250.88c-123.904 3.072-221.696 106.496-218.624 230.4 3.072 123.904 106.496 221.696 230.4 218.624 123.904-3.072 221.696-106.496 218.624-230.4-3.072-123.904-106.496-221.696-230.4-218.624z"  /><path fill="#333333" d="M823.296 808.96c-6.144 0-12.288-2.048-16.896-6.656l-130.048-123.392c-9.728-9.216-9.728-24.064-1.024-33.28 9.216-9.728 24.064-9.728 33.28-1.024l130.048 123.392c9.728 9.216 9.728 24.064 1.024 33.28-4.096 5.12-10.24 7.68-16.384 7.68z"  /></svg>