<?xml version="1.0" standalone="no"?><!DOCTYPE svg PUBLIC "-//W3C//DTD SVG 1.1//EN" "http://www.w3.org/Graphics/SVG/1.1/DTD/svg11.dtd"><svg class="icon" width="200px" height="200.00px" viewBox="0 0 1024 1024" version="1.1" xmlns="http://www.w3.org/2000/svg"><path d="M718.279294 176.810823c22.360997 0 49.093045 14.738751 58.051893 27.924153v0.090311l104.327236 151.975306c9.428466 13.889828 8.8866 37.840298-1.15598 51.242446L515.169915 894.078634c-2.673205 3.612439-5.942462 5.779902-8.543418 5.779902s-6.08696-2.275837-8.850475-5.978586l-364.404777-485.873036c-9.825834-13.095091-10.439948-38.255728-1.300478-51.910747L236.61475 204.951722l0.126435-0.180622 0.126435-0.180621c8.922724-13.113153 35.564461-27.779655 57.799023-27.779656h423.558464m0-54.186584H294.72083c-38.59891 0-82.7971 22.216499-102.701639 51.513379l-104.760729 151.397316c-22.234562 32.782883-21.006332 83.284779 2.763516 114.983931l364.404777 485.873035c13.203464 17.592578 32.241017 27.65322 52.199742 27.65322s38.833718-10.006456 51.92881-27.49066L922.978145 440.717549c24.004657-32.042333 25.160637-81.15344 2.564832-114.333692l-104.399485-152.137865c-20.030974-29.441377-64.337537-51.621752-102.864198-51.621753z" fill="#231815" /><path d="M890.610693 410.102129H124.629143c-6.917821 0-12.643536-4.967104-12.643536-11.126312s5.635405-11.10825 12.643536-11.10825h765.98155c6.935883 0 12.553225 4.967104 12.553225 11.10825s-5.617343 11.126312-12.553225 11.126312z m0 0"  /><path d="M487.679255 407.645671a11.993297 11.993297 0 0 1-8.14605-3.160885l-223.609969-204.102799a12.10167 12.10167 0 1 1 16.255975-17.86351l223.609969 204.102799a12.10167 12.10167 0 0 1-8.109925 21.024395z m0 0M518.204364 407.645671a12.10167 12.10167 0 0 1-8.164112-21.024395L628.961741 278.157797a12.10167 12.10167 0 1 1 16.255975 17.863511l-118.921489 108.535727a11.957173 11.957173 0 0 1-8.14605 3.160884z m0 0M668.301201 270.734235a12.10167 12.10167 0 0 1-8.14605-21.042456l8.326672-7.658371a12.10167 12.10167 0 1 1 16.255975 17.86351l-8.435045 7.676433a11.957173 11.957173 0 0 1-8.164112 3.178946z m0 0M705.762193 236.45219a12.10167 12.10167 0 0 1-8.164112-21.042457l36.124389-32.909318a12.10167 12.10167 0 1 1 16.255975 17.86351l-36.124389 32.927381a12.047484 12.047484 0 0 1-8.14605 3.160884z m0 0M330.285291 448.682977a12.119733 12.119733 0 0 1-11.270809-7.676433L304.474415 404.59316a12.10167 12.10167 0 1 1 22.541619-8.814351l14.558129 36.431446a12.10167 12.10167 0 0 1-6.863634 15.659923 11.939111 11.939111 0 0 1-4.425238 0.830861z m0 0M346.32452 489.61191a12.10167 12.10167 0 0 1-11.288872-7.676433l-4.244616-10.837317a12.10167 12.10167 0 0 1 22.541619-8.850475l4.226554 10.837317a12.047484 12.047484 0 0 1-11.234685 16.508846z m0 0M506.825181 899.786288a12.119733 12.119733 0 0 1-11.270809-7.694495l-144.208562-368.468771A12.10167 12.10167 0 0 1 373.887429 514.772547l144.190499 368.46877a12.10167 12.10167 0 0 1-6.845571 15.677985 12.300355 12.300355 0 0 1-4.425238 0.830861z m0 0"  /><path d="M506.825181 899.786288a12.462914 12.462914 0 0 1-4.371051-0.812799 12.119733 12.119733 0 0 1-6.899758-15.659923l186.925652-482.260596a12.10167 12.10167 0 1 1 22.559681 8.742102l-186.90759 482.260596a12.119733 12.119733 0 0 1-11.306934 7.73062z m0 0"  /></svg>