<?xml version="1.0" standalone="no"?><!DOCTYPE svg PUBLIC "-//W3C//DTD SVG 1.1//EN" "http://www.w3.org/Graphics/SVG/1.1/DTD/svg11.dtd"><svg class="icon" width="200px" height="200.00px" viewBox="0 0 1024 1024" version="1.1" xmlns="http://www.w3.org/2000/svg"><path d="M405.828267 86.528c-187.733333 50.619733-320.512 221.201067-320.512 418.321067 0 239.5648 194.218667 433.834667 433.749333 433.834666 197.256533 0 367.872-133.0688 418.423467-321.194666 8.055467-30.0032-24.8832-54.289067-51.165867-37.7344a318.856533 318.856533 0 0 1-170.632533 49.493333c-177.493333 0-321.3824-143.872-321.3824-321.2288 0-60.928 17.271467-119.364267 49.322666-170.3936 16.503467-26.299733-7.816533-59.204267-37.802666-51.114667z m-58.965334 96.256l-0.494933 1.416533a385.877333 385.877333 0 0 0-20.3264 123.818667c0 215.074133 174.455467 389.4784 389.632 389.4784l8.533333-0.085333c39.765333-0.8704 78.626133-7.816533 115.541334-20.309334l1.536-0.580266-2.5088 4.7104C775.953067 795.357867 655.0016 870.4 519.0656 870.4 317.2352 870.4 153.6 706.730667 153.6 504.849067c0-137.642667 76.868267-259.9424 193.262933-322.082134z" fill="#444444" /><path d="M898.304 147.1488a45.653333 45.653333 0 0 1-13.9776 50.653867l-156.7232 128.938666H904.533333v68.266667H664.507733a45.653333 45.653333 0 0 1-29.013333-80.896l156.757333-128.955733h-159.863466v-68.266667h222.941866c19.285333 0 36.471467 12.117333 42.973867 30.2592z" fill="#00B386" /></svg>