<?xml version="1.0" standalone="no"?><!DOCTYPE svg PUBLIC "-//W3C//DTD SVG 1.1//EN" "http://www.w3.org/Graphics/SVG/1.1/DTD/svg11.dtd"><svg class="icon" width="200px" height="200.00px" viewBox="0 0 1024 1024" version="1.1" xmlns="http://www.w3.org/2000/svg"><path d="M512 401.066667a110.933333 110.933333 0 1 1-110.933333 110.933333 111.104 111.104 0 0 1 110.933333-110.933333m0-76.8a187.733333 187.733333 0 1 0 187.733333 187.733333 187.733333 187.733333 0 0 0-187.733333-187.733333z" fill="#2E72F4" /><path d="M537.6 103.424L853.333333 285.525333a51.2 51.2 0 0 1 25.6 44.373334v364.202666a51.2 51.2 0 0 1-25.6 44.373334L537.6 920.576a51.2 51.2 0 0 1-51.2 0L170.666667 738.474667a51.2 51.2 0 0 1-25.6-44.373334V329.898667a51.2 51.2 0 0 1 25.6-44.373334L486.4 103.424a51.2 51.2 0 0 1 51.2 0z m-443.733333 137.728a51.2 51.2 0 0 0-25.6 44.373333v452.949334a51.2 51.2 0 0 0 25.6 44.373333l392.533333 226.474667a51.2 51.2 0 0 0 51.2 0l392.533333-226.474667a51.2 51.2 0 0 0 25.6-44.373333V285.525333a51.2 51.2 0 0 0-25.6-44.373333L537.6 14.848a51.2 51.2 0 0 0-51.2 0z" fill="#333333" /></svg>