<?xml version="1.0" standalone="no"?><!DOCTYPE svg PUBLIC "-//W3C//DTD SVG 1.1//EN" "http://www.w3.org/Graphics/SVG/1.1/DTD/svg11.dtd"><svg class="icon" width="200px" height="200.00px" viewBox="0 0 1024 1024" version="1.1" xmlns="http://www.w3.org/2000/svg"><path d="M512 849c-147.3 0-260.1-77.4-314.3-123.5-80.8-68.8-133-152.6-133-213.5 0-60.9 52.2-144.7 133-213.5C251.9 252.4 364.7 175 512 175s260.1 77.4 314.3 123.5c80.8 68.8 133 152.6 133 213.5 0 60.9-52.2 144.7-133 213.5C772.1 771.6 659.3 849 512 849z m0-606.5C300.6 242.5 132.2 436 132.2 512S300.6 781.5 512 781.5 891.8 588 891.8 512 723.4 242.5 512 242.5z" fill="#686868" /><path d="M512 669.8c-87 0-157.8-70.8-157.8-157.8 0-87 70.8-157.8 157.8-157.8 87 0 157.8 70.8 157.8 157.8 0 87-70.8 157.8-157.8 157.8z m0-248.1c-49.8 0-90.3 40.5-90.3 90.3s40.5 90.3 90.3 90.3 90.3-40.5 90.3-90.3-40.5-90.3-90.3-90.3z" fill="#2BA8FC" /></svg>