<?xml version="1.0" standalone="no"?><!DOCTYPE svg PUBLIC "-//W3C//DTD SVG 1.1//EN" "http://www.w3.org/Graphics/SVG/1.1/DTD/svg11.dtd"><svg class="icon" width="200px" height="200.00px" viewBox="0 0 1024 1024" version="1.1" xmlns="http://www.w3.org/2000/svg"><path d="M512 810.666667A409.386667 409.386667 0 0 1 121.386667 517.973333L119.68 512l1.706667-5.973333a407.04 407.04 0 0 1 781.226666 0l1.706667 5.973333-1.706667 5.973333A409.386667 409.386667 0 0 1 512 810.666667zM164.266667 512a364.16 364.16 0 0 0 695.466666 0 364.16 364.16 0 0 0-695.466666 0z" fill="#515151" /><path d="M512 661.333333a149.333333 149.333333 0 1 1 149.333333-149.333333 149.333333 149.333333 0 0 1-149.333333 149.333333z m0-256a106.666667 106.666667 0 1 0 106.666667 106.666667 106.666667 106.666667 0 0 0-106.666667-106.666667z" fill="#ffc43c" /></svg>