<?xml version="1.0" standalone="no"?><!DOCTYPE svg PUBLIC "-//W3C//DTD SVG 1.1//EN" "http://www.w3.org/Graphics/SVG/1.1/DTD/svg11.dtd"><svg class="icon" width="200px" height="200.00px" viewBox="0 0 1024 1024" version="1.1" xmlns="http://www.w3.org/2000/svg"><path d="M560.044651 535.813953A250.046512 250.046512 0 1 1 809.674419 285.767442a250.12986 250.12986 0 0 1-249.629768 250.046511z m0-452.465116a202.418605 202.418605 0 1 0 202.097116 202.418605A202.490047 202.490047 0 0 0 560.044651 83.348837z m20.801489 904.930233H96.88707a47.73507 47.73507 0 0 1-46.98493-55.581768 517.35814 517.35814 0 0 1 681.472-403.491721 23.813953 23.813953 0 0 1-15.764838 44.936931A469.849302 469.849302 0 0 0 96.815628 940.484465L580.84614 940.651163a23.813953 23.813953 0 0 1 0 47.627907z" fill="#3751F9" /><path d="M964.465116 839.44186H619.162791a23.813953 23.813953 0 0 1 0-47.627907h345.302325a23.813953 23.813953 0 0 1 0 47.627907zM791.813953 1012.093023a23.813953 23.813953 0 0 1-23.813953-23.813953V642.976744a23.813953 23.813953 0 0 1 47.627907 0v345.302326a23.813953 23.813953 0 0 1-23.813954 23.813953z" fill="#E9611E" /></svg>