<?xml version="1.0" standalone="no"?><!DOCTYPE svg PUBLIC "-//W3C//DTD SVG 1.1//EN" "http://www.w3.org/Graphics/SVG/1.1/DTD/svg11.dtd"><svg class="icon" width="200px" height="200.00px" viewBox="0 0 1024 1024" version="1.1" xmlns="http://www.w3.org/2000/svg"><path fill="#1296db" d="M512 967.111111a53.76 53.76 0 0 1-36.503704-14.317037L287.573333 779.946667a53.94963 53.94963 0 0 1-13.179259-60.586667l179.2-420.977778a8.722963 8.722963 0 0 0-1.706667-9.481481c-36.314074-37.925926-65.422222-91.401481-83.437037-129.991111a53.854815 53.854815 0 0 1 22.376297-69.49926A224.995556 224.995556 0 0 1 503.751111 56.888889h16.402963a223.383704 223.383704 0 0 1 113.114074 32.331852 53.854815 53.854815 0 0 1 22.281482 69.688889c-18.10963 38.779259-47.407407 92.728889-83.152593 129.801481a9.481481 9.481481 0 0 0-1.896296 9.955556L749.037037 719.265185a53.94963 53.94963 0 0 1-13.084444 60.681482l-187.448889 172.847407A53.665185 53.665185 0 0 1 512 967.111111zM323.887407 740.598519L512 913.351111l188.207407-172.752592L521.481481 319.525926a62.672593 62.672593 0 0 1 12.705186-68.077037c30.625185-31.668148 56.888889-80.118519 73.102222-115.2a168.77037 168.77037 0 0 0-86.471111-25.505185h-17.066667A172.278519 172.278519 0 0 0 417.185185 135.49037c12.61037 29.108148 39.917037 82.10963 72.722963 115.958519A62.293333 62.293333 0 0 1 502.518519 319.431111L323.697778 740.219259l-18.014815 20.005926z"  /><path fill="#1296db" d="M393.557333 463.587556L557.700741 368.82963l27.069629 46.885926-164.143407 94.767407zM294.162963 678.181926L622.364444 488.694519l27.06963 46.885925L321.232593 725.067852zM374.016 789.466074l304.801185-175.976296 27.06963 46.885926-304.801185 175.976296z"  /></svg>