<?xml version="1.0" standalone="no"?><!DOCTYPE svg PUBLIC "-//W3C//DTD SVG 1.1//EN" "http://www.w3.org/Graphics/SVG/1.1/DTD/svg11.dtd"><svg class="icon" width="200px" height="200.00px" viewBox="0 0 1024 1024" version="1.1" xmlns="http://www.w3.org/2000/svg"><path d="M331.1104 434.2784l-67.4816-45.9264c-23.4496-16.6912-18.8928-64.7168 48.64-67.6352L509.952 311.296 331.1104 434.2784z" fill="#88def9" /><path d="M678.2976 414.6688l204.0832-139.1616s-50.5344-88.7296-192.7168 7.3728c-99.072 68.864-292.8128 202.8544-350.8224 244.3776a38.94784 38.94784 0 0 1-33.2288 5.7344l-200.192-48.8448 139.1104 174.2848 211.9168-112.2816 5.7344 194.6624s25.6512 102.4 93.5424-12.544c22.4256-45.9776 122.5728-313.6 122.5728-313.6z" fill="#88def9" /><path d="M524.1344 830.1056c-23.6032 0-38.3488-9.7792-46.6432-18.176-20.7872-21.0944-21.1968-52.2752-20.992-59.2896l-4.9152-117.76-157.8496 84.736a41.66656 41.66656 0 0 1-52.2752-10.7008l-147.2512-184.32c-11.4688-14.3872-12.2368-34.2528-1.8944-49.4592s29.0816-21.8112 46.6944-16.384l175.5136 53.9136a1.024 1.024 0 0 0 0.6656-0.1024L659.968 264.192c8.5504-6.1952 120.4224-83.5584 253.7472 4.864a41.92768 41.92768 0 0 1 18.7392 33.9456 41.7536 41.7536 0 0 1-16.9472 34.5088c-45.3632 33.28-86.9888 62.4128-125.2352 88.8832a20.48 20.48 0 0 1-28.5184-5.1712 20.48 20.48 0 0 1 5.1712-28.5184c37.9904-26.3168 79.36-55.2448 124.3136-88.2176 0.1536-0.1024 0.256-0.2048 0.256-0.5632 0-0.4608-0.3072-0.6656-0.4608-0.768-113.0496-75.008-202.9056-8.96-206.6944-6.0928-0.1024 0.1024-0.3072 0.256-0.4608 0.3072l-344.832 248.3712a41.984 41.984 0 0 1-36.608 6.0416L126.976 497.8176c-0.6656 0-1.024 0.5632-1.024 0.8192l147.5072 184.6784c0.2048 0.256 0.6144 0.3584 0.9216 0.2048l172.544-92.6208c11.52-6.1952 25.344-4.608 35.2256 4.0448 8.4992 7.4752 12.1856 18.5856 9.984 29.3888l5.3248 127.4368c0.0512 0.6144 0 1.28 0 1.8944-0.2048 5.3248 1.0752 21.3504 9.3184 29.6448 1.5872 1.5872 6.2976 6.4 19.2 5.888 37.376-1.4336 59.392-62.208 59.5968-62.8224 0.1024-0.3584 0.256-0.7168 0.4096-1.0752l114.3808-282.4704a20.48 20.48 0 0 1 26.6752-11.3152 20.48 20.48 0 0 1 11.3152 26.6752l-114.2272 282.0096c-3.0208 8.5504-32.6656 87.4496-96.5632 89.9072-1.2288-0.0512-2.3552 0-3.4304 0z" fill="#55524F" /><path d="M331.1104 454.7584c-3.9424 0-7.9872-1.1264-11.52-3.5328l-67.4816-45.9264c-18.176-12.9536-25.9072-35.84-19.6096-57.2416 8.3456-28.16 37.8368-46.0288 78.848-47.7696l197.632-9.4208c11.1616-0.6656 20.8896 8.192 21.4528 19.456 0.5632 11.3152-8.192 20.8896-19.456 21.4528l-197.7344 9.4208c-26.88 1.1264-39.0144 10.2912-41.4208 18.4832-1.3824 4.608 0.1536 9.4208 3.7376 11.9808l67.1744 45.7216A20.49024 20.49024 0 0 1 348.16 445.8496a20.7872 20.7872 0 0 1-17.0496 8.9088z" fill="#55524F" /></svg>