<?xml version="1.0" standalone="no"?><!DOCTYPE svg PUBLIC "-//W3C//DTD SVG 1.1//EN" "http://www.w3.org/Graphics/SVG/1.1/DTD/svg11.dtd"><svg class="icon" width="200px" height="200.00px" viewBox="0 0 1024 1024" version="1.1" xmlns="http://www.w3.org/2000/svg"><path fill="#1296db" d="M387.584 734.72c-13.824 0-27.648-5.12-37.888-15.872l-187.392-187.392c-10.24-10.24-15.872-23.552-15.872-37.888 0-14.336 5.632-27.648 15.872-37.888l79.36-79.36c20.992-20.992 55.296-20.992 75.776 0l187.392 187.392c20.992 20.992 20.992 54.784 0 75.776l-79.36 79.36c-10.24 10.752-24.064 15.872-37.888 15.872z m-168.96-240.64l168.96 168.96 60.928-60.928-168.96-168.96-60.928 60.928zM726.528 396.288c-13.824 0-27.648-5.12-37.888-15.872L501.248 193.024c-10.24-10.24-15.872-23.552-15.872-37.888 0-14.336 5.632-27.648 15.872-37.888l79.36-79.36c10.24-10.24 23.552-15.872 37.888-15.872 14.336 0 27.648 5.632 37.888 15.872L843.776 225.28c10.24 10.24 15.872 23.552 15.872 37.888 0 14.336-5.632 27.648-15.872 37.888l-79.36 79.36c-10.24 10.752-24.064 15.872-37.888 15.872z m-168.96-241.152l168.96 168.96 60.928-60.928-168.96-168.96-60.928 60.928z"  /><path fill="#1296db" d="M308.736 445.44c-9.728 0-19.456-4.608-25.6-13.312-9.216-13.824-5.632-32.768 8.192-42.496 1.024-0.512 78.336-52.736 123.904-98.304 45.568-45.568 97.792-122.88 98.304-123.904 9.216-13.824 28.16-17.92 42.496-8.192 13.824 9.216 17.92 28.16 8.192 42.496-2.048 3.584-56.32 83.456-105.984 133.12s-129.536 103.424-133.12 105.984c-4.608 2.56-10.752 4.608-16.384 4.608zM466.944 603.648c-5.632 0-11.776-1.536-16.896-5.12-13.824-9.216-17.92-28.16-8.192-42.496 2.048-3.584 56.32-83.456 105.984-133.12s129.536-103.424 133.12-105.984c13.824-9.216 32.768-5.632 42.496 8.192 9.216 13.824 5.632 32.768-8.192 42.496-1.024 0.512-78.336 52.736-123.904 98.304-45.568 45.568-97.792 122.88-98.304 123.904-6.656 9.216-16.384 13.824-26.112 13.824z"  /><path fill="#1296db" d="M932.352 899.584c-23.552 0-47.104-8.704-65.024-26.624l-338.432-338.432c-12.288-12.288-18.944-28.672-18.944-45.568 0-17.408 6.656-33.792 18.944-45.568l41.472-41.472c23.552-23.552 61.44-23.552 84.992 0l342.016 342.016c35.84 35.84 35.84 93.696 0 129.536-17.92 17.408-41.472 26.112-65.024 26.112zM612.864 445.44l-40.448 40.448c-0.512 0.512-1.024 1.536-1.024 2.56s0.512 2.048 1.024 2.56l338.432 338.432c11.776 11.776 31.232 11.776 43.008 0 11.776-11.776 11.776-31.232 0-43.008L612.864 445.44z"  /><path fill="#1296db" d="M589.312 891.904H79.872c-16.384 0-29.696-13.312-29.696-29.696s13.312-29.696 29.696-29.696h509.44c16.384 0 29.696 13.312 29.696 29.696s-13.312 29.696-29.696 29.696zM640.512 1001.472H29.184c-15.872 0-29.184-12.8-29.184-29.184 0-15.872 12.8-29.184 29.184-29.184h611.328c15.872 0 29.184 12.8 29.184 29.184-0.512 16.384-13.312 29.184-29.184 29.184z"  /></svg>