<?xml version="1.0" standalone="no"?><!DOCTYPE svg PUBLIC "-//W3C//DTD SVG 1.1//EN" "http://www.w3.org/Graphics/SVG/1.1/DTD/svg11.dtd"><svg class="icon" width="200px" height="200.00px" viewBox="0 0 1024 1024" version="1.1" xmlns="http://www.w3.org/2000/svg"><path fill="#1296db" d="M737.745455 356.072727l-197.818182-197.818182 97.745454-97.745454 197.818182 197.818182-97.745454 97.745454z m-130.327273-195.490909l132.654545 132.654546 32.581818-32.581819-132.654545-132.654545-32.581818 32.581818zM525.963636 570.181818L328.145455 372.363636l97.745454-97.745454 197.818182 197.818182-97.745455 97.745454zM393.309091 372.363636l132.654545 132.654546 32.581819-32.581818-132.654546-132.654546-32.581818 32.581818z"  /><path fill="#1296db" d="M558.545455 472.436364l-132.654546-132.654546 181.527273-181.527273 132.654545 132.654546-181.527272 181.527273z m-65.163637-132.654546l65.163637 65.163637 116.363636-114.036364-65.163636-65.163636-116.363637 114.036363z"  /><path fill="#1296db" d="M601.6 365.218909l32.907636-32.907636L930.676364 628.526545l-32.907637 32.907637z"  /><path fill="#1296db" d="M139.636364 837.818182h744.727272v46.545454H139.636364z"  /><path fill="#1296db" d="M279.272727 698.181818h465.454546v46.545455H279.272727z"  /></svg>