<?xml version="1.0" standalone="no"?><!DOCTYPE svg PUBLIC "-//W3C//DTD SVG 1.1//EN" "http://www.w3.org/Graphics/SVG/1.1/DTD/svg11.dtd"><svg class="icon" width="200px" height="200.00px" viewBox="0 0 1024 1024" version="1.1" xmlns="http://www.w3.org/2000/svg"><path d="M512 848.06a335.26 335.26 0 0 1-252-113.77 16 16 0 0 1 0-21.18A303.69 303.69 0 0 0 336 512a16 16 0 0 1 16-16h160a16 16 0 0 1 16 16v320.06a16 16 0 0 1-16 16zM293.29 723.23A304.36 304.36 0 0 0 496 815.64V528H367.59a335.59 335.59 0 0 1-74.3 195.23z" fill="#333333" /><path d="M512 528H352a16 16 0 0 1-16-16 303.69 303.69 0 0 0-76-201.11 16 16 0 0 1 0-21.17 335.26 335.26 0 0 1 252-113.78 16 16 0 0 1 16 16V512a16 16 0 0 1-16 16z m-144.41-32H496V208.36a304.29 304.29 0 0 0-202.71 92.41A335.61 335.61 0 0 1 367.59 496z" fill="#333333" /><path d="M512 848.06a16 16 0 0 1-16-16V512a16 16 0 0 1 16-16h160.07a16 16 0 0 1 16 16 303.72 303.72 0 0 0 76 201.1 16 16 0 0 1 0 21.17A335.28 335.28 0 0 1 512 848.06zM528 528v287.64a304.39 304.39 0 0 0 202.73-92.43A335.6 335.6 0 0 1 656.45 528z" fill="#333333" /><path d="M672.07 528H512a16 16 0 0 1-16-16V191.94a16 16 0 0 1 16-16 335.18 335.18 0 0 1 252.06 113.79 16 16 0 0 1 0 21.18 303.67 303.67 0 0 0-76 201.09 16 16 0 0 1-15.99 16zM528 496h128.45a335.6 335.6 0 0 1 74.28-195.21A304.34 304.34 0 0 0 528 208.36z" fill="#333333" /><path d="M832.06 528h-160a16 16 0 0 1-16-16 335.66 335.66 0 0 1 84-222.27 16 16 0 0 1 12-5.41 16 16 0 0 1 12 5.41 335.66 335.66 0 0 1 84 222.27 16 16 0 0 1-16 16z m-143.57-32h127.15a303.6 303.6 0 0 0-63.57-170.62A303.54 303.54 0 0 0 688.49 496z" fill="#E72418" /><path d="M752.07 739.69a16 16 0 0 1-12-5.42 335.64 335.64 0 0 1-84-222.27 16 16 0 0 1 16-16h160a16 16 0 0 1 16 16 335.66 335.66 0 0 1-84 222.27 16 16 0 0 1-12 5.42zM688.49 528a303.6 303.6 0 0 0 63.58 170.63A303.66 303.66 0 0 0 815.64 528zM352 528H192a16 16 0 0 1-16-16 335.61 335.61 0 0 1 84-222.29 16 16 0 0 1 24 0A335.66 335.66 0 0 1 368 512a16 16 0 0 1-16 16z m-143.65-32h127.2A303.6 303.6 0 0 0 272 325.36 303.67 303.67 0 0 0 208.35 496z" fill="#E72418" /><path d="M272 739.7a16 16 0 0 1-12-5.41A335.59 335.59 0 0 1 176 512a16 16 0 0 1 16-16h160a16 16 0 0 1 16 16 335.64 335.64 0 0 1-84 222.29 16 16 0 0 1-12 5.41zM208.35 528A303.73 303.73 0 0 0 272 698.65 303.65 303.65 0 0 0 335.55 528z" fill="#E72418" /><path d="M512 848.06a336.14 336.14 0 0 1-140.58-641.39A336.14 336.14 0 0 1 652.6 817.33 333.39 333.39 0 0 1 512 848.06z m0-640.12a304.06 304.06 0 1 0 228.06 103 304.28 304.28 0 0 0-228.06-103z" fill="#333333" /></svg>