<?xml version="1.0" standalone="no"?><!DOCTYPE svg PUBLIC "-//W3C//DTD SVG 1.1//EN" "http://www.w3.org/Graphics/SVG/1.1/DTD/svg11.dtd"><svg class="icon" width="200px" height="200.00px" viewBox="0 0 1024 1024" version="1.1" xmlns="http://www.w3.org/2000/svg"><path d="M820.736 829.44c-61.44 0-123.392-22.016-213.504-75.776-28.16-16.896-60.416-25.6-93.184-25.6-40.448 0-70.144 7.68-95.744 25.088l-1.024 0.512C323.072 806.4 259.584 829.44 203.264 829.44c-39.424 0-73.216-22.528-92.672-61.44-15.36-31.232-18.944-67.584-18.944-115.2C92.16 470.528 200.192 194.56 362.496 194.56c17.92 0 35.328 6.656 53.76 13.824 6.144 2.56 12.8 4.608 19.456 7.168l1.024 0.512c4.608 2.048 9.728 4.096 14.336 6.144 22.016 9.216 43.008 17.92 62.464 17.92 20.48 0 48.64-12.8 71.168-23.04l2.048-1.024c28.672-12.8 52.224-21.504 74.752-21.504 76.288 0 147.456 58.368 200.192 164.352 43.008 87.04 70.144 199.68 70.144 293.376 0 46.592-5.632 82.944-17.92 113.664l-0.512 1.024c-17.408 38.912-52.224 62.464-92.672 62.464z m-305.664-139.776c38.912 0 77.824 10.752 111.104 30.72 83.456 50.176 139.776 70.656 194.048 70.656 25.088 0 46.592-14.336 57.856-38.912 10.24-26.624 15.36-57.856 15.36-99.328 0-88.576-25.088-194.048-66.048-276.48-26.624-53.76-83.456-143.36-166.4-143.36-16.896 0-38.4 8.704-59.392 17.92l-2.048 1.024c-26.112 11.776-58.368 26.112-87.04 26.112-27.136 0-52.736-10.752-77.312-20.992-4.608-2.048-8.704-3.584-13.312-5.632-7.168-2.56-13.824-5.12-19.968-7.168-15.36-5.632-29.696-11.264-39.936-11.264-132.608 0-232.448 254.464-232.448 419.84 0 42.496 2.56 73.728 14.848 98.304 12.8 25.6 33.28 39.936 58.368 39.936 48.64 0 107.008-20.992 194.048-70.144 41.984-27.648 86.016-30.72 116.224-30.72 1.024-0.512 1.536-0.512 2.048-0.512z" fill="#505C71" /><path d="M446.976 523.776h-39.936v39.936c0 12.288-9.728 23.04-22.528 23.04-12.288 0-23.04-9.728-23.04-22.528V523.776h-39.936c-12.8 0-22.528-10.24-22.528-22.528 0-12.288 10.24-22.528 22.528-22.528h39.936v-39.936c0-12.288 9.728-23.04 22.528-23.04 12.288 0 23.04 9.728 23.04 22.528V478.72h39.936c12.8 0 22.528 10.24 22.528 22.528 0 12.288-10.24 22.528-22.528 22.528z" fill="#F0993E" /><path d="M662.016 442.368c32.256 0 58.368 26.112 58.368 58.368 0 32.256-26.112 58.368-58.368 58.368-32.256 0-58.368-26.112-58.368-58.368 0-32.256 26.112-58.368 58.368-58.368z" fill="#EA6055" /></svg>