<?xml version="1.0" standalone="no"?><!DOCTYPE svg PUBLIC "-//W3C//DTD SVG 1.1//EN" "http://www.w3.org/Graphics/SVG/1.1/DTD/svg11.dtd"><svg class="icon" width="200px" height="200.00px" viewBox="0 0 1024 1024" version="1.1" xmlns="http://www.w3.org/2000/svg"><path d="M779.776 815.104H245.76c-56.32 0-102.4-46.08-102.4-102.4V399.36c0-56.32 46.08-101.888 102.4-101.888h95.232l32.768-66.56c3.584-6.656 8.704-12.288 14.848-15.872 6.144-4.096 13.824-6.656 21.504-6.656h212.48c13.824 1.024 26.112 9.216 32.768 21.504l32.768 67.072H778.24c56.32 0 102.4 45.568 102.4 101.888v316.416c-0.512 27.136-11.264 52.224-30.72 71.168-18.944 18.944-44.032 28.672-70.144 28.672zM245.76 334.336c-35.84 0-65.024 29.184-65.024 64.512v313.856c0 35.84 29.184 65.024 65.024 65.024h532.48c17.408 0 33.28-6.144 45.568-17.92 12.288-11.776 18.944-27.648 19.456-44.544V399.36c0-35.84-29.184-65.024-65.024-65.024h-113.664l-43.008-87.552c0-0.512-1.024-1.024-1.536-1.024H409.6c-0.512 0-0.512 0-1.024 0.512l-1.024 0.512c-0.512 0.512-1.024 0.512-1.024 1.024L363.52 334.336H245.76z" fill="#505C71" /><path d="M288.768 268.8c12.8 0 23.04 10.24 23.04 23.04v38.4h-46.08V291.84c0-12.8 10.24-23.04 23.04-23.04z" fill="#505C71" /><path d="M748.544 425.472m-44.032 0a44.032 44.032 0 1 0 88.064 0 44.032 44.032 0 1 0-88.064 0Z" fill="#F0993E" /><path d="M516.096 745.984c-105.984 0-191.488-86.016-192-191.488 0-105.984 86.016-192 191.488-192 51.2 0 99.328 19.968 135.68 56.32 36.352 36.352 56.32 84.48 56.32 135.68 0 105.472-86.016 191.488-191.488 191.488z m0-346.112c-84.992 0-154.624 69.12-154.624 154.624 0 84.992 69.12 154.624 154.624 154.624 84.992 0 154.624-69.12 154.624-154.624 0-41.472-15.872-79.872-45.056-109.056-29.696-29.696-68.608-45.568-109.568-45.568z" fill="#505C71" /><path d="M516.096 554.496m-96.256 0a96.256 96.256 0 1 0 192.512 0 96.256 96.256 0 1 0-192.512 0Z" fill="#EA6055" /></svg>