<?xml version="1.0" standalone="no"?><!DOCTYPE svg PUBLIC "-//W3C//DTD SVG 1.1//EN" "http://www.w3.org/Graphics/SVG/1.1/DTD/svg11.dtd"><svg class="icon" width="200px" height="200.00px" viewBox="0 0 1024 1024" version="1.1" xmlns="http://www.w3.org/2000/svg"><path d="M211.5 837.1c-6.3 0-12.6-2.4-17.4-7.2-9.6-9.6-9.6-25.1 0-34.7l601-601c9.6-9.6 25.1-9.6 34.7 0 9.6 9.6 9.6 25.1 0 34.7l-601 601c-4.8 4.8-11 7.2-17.3 7.2z" fill="#4867C8" /><path d="M928.9 343.4c-22.6-56-55.9-106.2-99-149.3C787 151.3 737 118 681.2 95.4c-53.8-21.9-110.7-33-169-33-11.4 0-21.4 7.9-23.9 19.1l-47.4 209c-6.5 28.9-19.2 55.8-37.1 79L228.6 194.7c-9.6-9.6-25.1-9.6-34.7 0-9.6 9.6-9.6 25.1 0 34.7l175.6 175.1c-24.1 19.3-52.4 32.9-82.9 39.7L81.7 489.7c-11.2 2.5-19.2 12.6-19.2 24.1 0.2 58 11.4 114.6 33.2 168.2 22.6 55.4 55.7 105.2 98.4 147.9 43 43 93.2 76.3 149.1 98.9 53.8 21.8 110.6 32.8 168.8 32.8 0.2 0 0.5 0 0.8-0.1 11.5 0 21.4-8 23.9-19.2l45.2-203.9c6.7-30.1 20-58.1 39-82.1L794.5 831c4.8 4.8 11.1 7.2 17.4 7.2s12.5-2.4 17.3-7.1c9.6-9.5 9.7-25.1 0.1-34.7L655.7 621.8c23.5-18.2 50.7-31.2 79.9-37.8l206.9-46.9c11.1-2.5 19.1-12.5 19.1-23.9 0.1-58.6-10.9-115.7-32.7-169.8zM534 727.7L493.1 912c-45.3-2.1-89.4-11.8-131.5-28.8-49.8-20.1-94.5-49.8-132.8-88.1-70.5-70.5-111.6-162.9-116.7-261.9l185.1-40.9c39.8-8.8 76.4-26.9 107.3-52.8l108.9 108.6 72.7 73.2c-25.5 30.7-43.4 67.1-52.1 106.4z m190.7-191.6c-38.2 8.6-73.6 26-103.8 50.6l-72.7-73.1-0.1-0.1-109.2-109c24.3-30 41.4-65.1 50-103l42.9-189.4c45.1 2.2 89.1 11.9 131 28.9 49.6 20.1 94.1 49.7 132.3 87.9 38.4 38.4 68.1 83.1 88.2 133 17 42.1 26.7 86.4 28.7 131.8l-187.3 42.4z" fill="#FF859F" /><path d="M512 961.6c-35.1 0-70-4.1-103.9-12.1-56.9-13.5-110-37.6-157.8-71.9-47-33.7-86.6-75.4-117.6-124.1C92.9 691 69 618.9 63.6 545c-0.8-10.9-1.2-22-1.2-33 0-53.4 9.3-105.6 27.5-155.2 17.6-48 43.2-92.3 76-131.8C214 167.1 276.2 121.9 345.8 94.2 398.7 73.1 454.6 62.4 512 62.4c59 0 116.3 11.2 170.4 33.4 67.5 27.7 128 72 174.9 128.2 33 39.5 58.8 84 76.6 132.1 18.4 49.8 27.7 102.2 27.7 155.8 0 11.6-0.5 23.4-1.3 34.9-5.4 71-28.1 140.4-65.4 200.9-30.5 49.4-69.7 91.9-116.4 126.4-47.5 35-100.4 59.9-157.4 74.1-35.6 8.9-72.2 13.4-109.1 13.4z m0-850c-51.2 0-101 9.5-148 28.2-62 24.7-117.4 65-160.2 116.6-29.2 35.2-52 74.7-67.7 117.4-16.3 44.2-24.5 90.7-24.5 138.3 0 9.9 0.4 19.8 1.1 29.5 4.8 65.8 26.1 130 61.5 185.6 27.7 43.4 63 80.6 104.8 110.6 42.5 30.5 89.8 52 140.5 64 30.1 7.1 61.3 10.8 92.6 10.8 32.9 0 65.5-4 97-11.8 50.7-12.6 97.9-34.8 140.2-66 41.7-30.7 76.6-68.6 103.8-112.6 33.3-53.9 53.4-115.7 58.2-178.9 0.8-10.3 1.2-20.7 1.2-31.1 0-47.7-8.3-94.4-24.7-138.8C872 330.5 849 291 819.6 255.7c-41.8-50.1-95.7-89.6-155.8-114.2-48.2-19.9-99.3-29.9-151.8-29.9z" fill="#4867C8" /></svg>