<?xml version="1.0" standalone="no"?><!DOCTYPE svg PUBLIC "-//W3C//DTD SVG 1.1//EN" "http://www.w3.org/Graphics/SVG/1.1/DTD/svg11.dtd"><svg class="icon" width="200px" height="200.00px" viewBox="0 0 1024 1024" version="1.1" xmlns="http://www.w3.org/2000/svg"><path d="M435.2 810.666667l-123.733333-123.733334-12.8-12.8-183.466667-183.466666c-29.866667-29.866667-51.2-76.8-51.2-128S85.333333 264.533333 119.466667 230.4l4.266666-4.266667c34.133333-38.4 85.333333-59.733333 132.266667-59.733333 51.2 0 98.133333 21.333333 132.266667 55.466667l42.666666 42.666666 42.666667-42.666666c34.133333-34.133333 81.066667-55.466667 132.266667-55.466667 51.2 0 98.133333 21.333333 132.266666 55.466667l4.266667 4.266666c34.133333 34.133333 55.466667 81.066667 55.466667 132.266667 0 51.2-21.333333 98.133333-55.466667 132.266667l-29.866667 29.866666-29.866666-29.866666 29.866666-29.866667c25.6-25.6 38.4-59.733333 38.4-98.133333 0-38.4-12.8-72.533333-38.4-98.133334l-4.266666-4.266666c-51.2-51.2-140.8-51.2-196.266667 0L435.2 341.333333 354.133333 260.266667C302.933333 209.066667 213.333333 209.066667 162.133333 260.266667l-8.533333 4.266666c-25.6 25.6-38.4 59.733333-38.4 98.133334 0 38.4 12.8 72.533333 38.4 98.133333L337.066667 640l8.533333 8.533333 89.6 89.6 106.666667-106.666666 38.4 38.4-145.066667 140.8z" fill="#6A3906" /><path d="M716.8 866.133333l-85.333333-85.333333-8.533334-8.533333-110.933333-110.933334c-51.2-51.2-51.2-132.266667 0-179.2 51.2-51.2 132.266667-51.2 183.466667-4.266666l21.333333 21.333333 21.333333-21.333333c46.933333-46.933333 132.266667-46.933333 179.2 0 51.2 51.2 51.2 132.266667 4.266667 183.466666l-204.8 204.8z m-110.933333-375.466666c-21.333333 0-38.4 8.533333-55.466667 21.333333-34.133333 34.133333-34.133333 81.066667-4.266667 110.933333l115.2 115.2 4.266667 4.266667 46.933333 46.933333 64-64 106.666667-106.666666c29.866667-29.866667 29.866667-76.8 0-106.666667-34.133333-34.133333-81.066667-29.866667-110.933333-4.266667l-55.466667 55.466667-55.466667-55.466667c-17.066667-8.533333-34.133333-17.066667-55.466666-17.066666z" fill="#6A3906" /><path d="M844.8 550.4c-17.066667-17.066667-51.2-17.066667-68.266667 0l-55.466666 55.466667-55.466667-55.466667c-17.066667-17.066667-51.2-17.066667-68.266667 0-17.066667 17.066667-17.066667 51.2 0 68.266667l81.066667 81.066666 42.666667 42.666667 51.2-51.2 76.8-76.8c17.066667-12.8 17.066667-46.933333-4.266667-64z" fill="#F5CB2B" /></svg>