<?xml version="1.0" standalone="no"?><!DOCTYPE svg PUBLIC "-//W3C//DTD SVG 1.1//EN" "http://www.w3.org/Graphics/SVG/1.1/DTD/svg11.dtd"><svg class="icon" width="200px" height="200.00px" viewBox="0 0 1024 1024" version="1.1" xmlns="http://www.w3.org/2000/svg"><path d="M952.888889 766.435556a526.222222 526.222222 0 0 1-78.222222-5.973334l-29.297778-198.257778a26.737778 26.737778 0 0 0-52.764445 7.822223l26.595556 179.768889a1596.586667 1596.586667 0 0 1-160.284444-48.64C565.76 668.444444 469.333333 635.733333 365.084444 635.733333a777.813333 777.813333 0 0 0-145.351111 12.942223l20.906667-141.368889A78.933333 78.933333 0 0 1 306.488889 440.888889 1331.057778 1331.057778 0 0 1 483.555556 423.964444a26.737778 26.737778 0 1 0-1.422223-53.333333 1392.64 1392.64 0 0 0-184.888889 17.777778 132.124444 132.124444 0 0 0-109.937777 111.075555l-23.466667 162.275556a360.391111 360.391111 0 0 0-108.8 47.928889 26.737778 26.737778 0 0 0 32 42.666667c0.853333 0 88.462222-63.288889 278.044444-63.288889 95.288889 0 183.324444 30.293333 276.48 62.435555C739.555556 785.066667 839.111111 819.768889 952.888889 819.768889a26.737778 26.737778 0 0 0 0-53.333333z" fill="#3A303D" /><path d="M342.613333 558.791111a26.737778 26.737778 0 0 1-3.271111-53.191111 1429.902222 1429.902222 0 0 1 345.173334 0 26.595556 26.595556 0 1 1-6.542223 52.906667 1379.555556 1379.555556 0 0 0-332.088889 0z" fill="#FF2C6D" /><path d="M952.888889 207.36c-23.751111-23.751111-54.613333-9.671111-90.168889 6.826667A448.711111 448.711111 0 0 1 768 248.604444a101.404444 101.404444 0 0 0-76.373333 75.662223 197.546667 197.546667 0 0 0-4.266667 84.053333 134.115556 134.115556 0 0 1-46.08-30.008889 136.248889 136.248889 0 0 1-39.537778-83.057778l14.222222 8.533334 2.986667 1.706666a26.737778 26.737778 0 0 0 27.591111-45.653333l-2.986666-1.706667c-28.444444-17.066667-56.888889-34.56-79.786667-11.946666-32.284444 32.142222-12.088889 117.902222 39.822222 170.666666a187.448889 187.448889 0 0 0 124.871111 54.613334 102.684444 102.684444 0 0 0 14.222222-0.995556 126.435556 126.435556 0 0 0 14.222223 0.853333 182.613333 182.613333 0 0 0 39.537777-5.546666A226.417778 226.417778 0 0 0 965.12 298.666667c4.693333-19.2 12.8-66.56-12.231111-91.306667z m-85.333333 160.853333a161.564444 161.564444 0 0 1-118.613334 48.782223h-4.408889a134.684444 134.684444 0 0 1 1.848889-85.333334 45.226667 45.226667 0 0 1 33.137778-29.866666 493.653333 493.653333 0 0 0 106.382222-38.115556 319.146667 319.146667 0 0 1 31.004445-13.084444c2.844444 18.488889-6.684444 74.524444-49.351111 117.617777z" fill="#3A303D" /></svg>